<?xml version="1.0" encoding="UTF-8"?>
<svg width="17px" height="20px" viewBox="0 0 17 20" version="1.1" xmlns="http://www.w3.org/2000/svg" xmlns:xlink="http://www.w3.org/1999/xlink">
    <title>Shape</title>
    <g id="Symbols" stroke="none" stroke-width="1" fill="none" fill-rule="evenodd">
        <g id="shopping-bag-/-default" transform="translate(-12.000000, -10.000000)" fill="#33333A" fill-rule="nonzero">
            <g id="shopping-bag">
                <path d="M28.0368098,27.2883436 L26.8916155,14.392638 C26.8670757,14.1063395 26.6257669,13.8895706 26.3435583,13.8895706 L23.9877301,13.8895706 C23.9550102,11.7382413 22.196319,10 20.0368098,10 C17.8773006,10 16.1186094,11.7382413 16.0858896,13.8895706 L13.7300613,13.8895706 C13.4437628,13.8895706 13.206544,14.1063395 13.1820041,14.392638 L12.0368098,27.2883436 C12.0368098,27.3047035 12.0327198,27.3210634 12.0327198,27.3374233 C12.0327198,28.805726 13.3783231,30 15.0347648,30 L25.0388548,30 C26.6952965,30 28.0408998,28.805726 28.0408998,27.3374233 C28.0408998,27.3210634 28.0408998,27.3047035 28.0368098,27.2883436 Z M20.0368098,11.1042945 C21.5869121,11.1042945 22.8507157,12.3476483 22.8834356,13.8895706 L17.190184,13.8895706 C17.2229039,12.3476483 18.4867076,11.1042945 20.0368098,11.1042945 Z M25.0388548,28.8957055 L15.0347648,28.8957055 C13.99591,28.8957055 13.1533742,28.208589 13.1370143,27.3619632 L14.2331288,14.997955 L16.0817996,14.997955 L16.0817996,16.6748466 C16.0817996,16.9815951 16.3271984,17.2269939 16.6339468,17.2269939 C16.9406953,17.2269939 17.1860941,16.9815951 17.1860941,16.6748466 L17.1860941,14.997955 L22.8834356,14.997955 L22.8834356,16.6748466 C22.8834356,16.9815951 23.1288344,17.2269939 23.4355828,17.2269939 C23.7423313,17.2269939 23.9877301,16.9815951 23.9877301,16.6748466 L23.9877301,14.997955 L25.8364008,14.997955 L26.9366053,27.3619632 C26.9202454,28.208589 26.0736196,28.8957055 25.0388548,28.8957055 Z" id="Shape"></path>
            </g>
        </g>
    </g>
</svg>