<?xml version="1.0" encoding="UTF-8"?>
<svg width="20px" height="19px" viewBox="0 0 20 19" version="1.1" xmlns="http://www.w3.org/2000/svg" xmlns:xlink="http://www.w3.org/1999/xlink">
    <title>001-heart-outline</title>
    <g id="Symbols" stroke="none" stroke-width="1" fill="none" fill-rule="evenodd">
        <g id="Nav/01-Global/Default" transform="translate(-1200.000000, -31.000000)" fill="#33333A" fill-rule="nonzero">
            <g id="001-heart-outline" transform="translate(1200.000000, 31.000000)">
                <path d="M18.3829739,1.61686275 C17.3936928,0.638006536 15.9679739,0.0104901961 14.4680392,0.0104901961 C13.5849673,0.0104901961 12.7552288,0.21248366 11.9574837,0.616928105 C11.1594771,1.02111111 10.5106536,1.57418301 10,2.27637255 C9.48937908,1.57418301 8.8404902,1.02111111 8.04254902,0.616895425 C7.24457516,0.21248366 6.4148366,0.0104575163 5.53199346,0.0104575163 C4.03205882,0.0104575163 2.60656863,0.638006536 1.61705882,1.61683007 C0.627745098,2.5954902 0,4.02098039 0,5.52114379 C0,6.55287582 0.219215686,7.55441176 0.489313725,8.30836601 C0.623431373,8.68215686 0.826111111,9.0872549 1.09571895,9.49986928 C1.36852941,9.91722222 1.61702614,10.265817 1.8296732,10.5422222 C2.04254902,10.8189216 2.34575163,11.1647386 2.75519608,11.5635294 C3.1648366,11.9627124 3.4998366,12.2763399 3.74447712,12.4996732 C3.98911765,12.723268 4.36133987,13.0532353 4.85088235,13.4785294 C5.41441176,13.9680719 5.81633987,14.332549 6.07437908,14.5635948 C6.32696078,14.7898693 6.69147059,15.1379739 7.17009804,15.5955556 C8.13826797,16.5207843 8.84862745,17.3734641 9.52111111,18.3507516 C9.64660131,18.5332353 9.80843137,18.616732 9.99973856,18.616732 C10.2019608,18.616732 10.3769281,18.5350327 10.4997059,18.3507516 C10.9302614,17.7050654 11.4279412,17.0446405 12.0103268,16.3933007 C12.5981373,15.7360784 13.087451,15.2260784 13.4784967,14.8613725 C13.8747712,14.4918627 14.4444118,13.9762745 15.1806536,13.3189869 C15.635915,12.9122876 15.9997059,12.6061765 16.2446078,12.3828431 C16.4892484,12.1593137 16.808366,11.8508497 17.2021242,11.4573529 C17.5956863,11.0635948 17.9067974,10.7251961 18.1276471,10.4465033 C18.3536928,10.1614379 18.592451,9.81666667 18.8616013,9.40408497 C19.4115033,8.56140523 19.6522876,7.89418301 19.8508824,6.95732026 C19.9498039,6.48980392 19.9997712,6.01045752 19.9997712,5.52117647 C20,4.02098039 19.3722549,2.5954902 18.3829739,1.61686275 Z M18.7233987,6.60617647 C18.5184641,7.78656863 17.9018301,8.94424837 16.8723529,10.084902 C16.4230065,10.5826144 15.598268,11.3749346 14.3935621,12.4466013 C13.7685294,13.0026797 13.2660784,13.457451 12.8722876,13.8190196 C12.4894118,14.1703268 12.0184967,14.6460458 11.4574837,15.2444771 C10.9014379,15.8374837 10.4148693,16.4252941 9.99996732,16.9997386 C9.56375817,16.4360131 9.06107843,15.8640523 8.48937908,15.2762745 C7.91222222,14.683268 7.46810458,14.2338562 7.13833333,13.9358824 C6.80856209,13.6381373 6.30611111,13.1939542 5.61705882,12.5848366 L4.88310458,11.9359804 L4.2129085,11.3295425 C3.92264706,11.0669608 3.69931373,10.8533987 3.55336601,10.6913399 C3.41222222,10.5343137 3.22362745,10.3295752 2.98964052,10.0742484 C2.75565359,9.81892157 2.57568627,9.59496732 2.45764706,9.41470588 C2.21392157,9.04183007 1.79947712,8.48535948 1.64924837,8.02101307 L1.40457516,7.26571895 C1.22620915,6.71513072 1.17058824,6.14866013 1.17058824,5.52114379 C1.17058824,4.32964052 1.59611111,3.30836601 2.44718954,2.46794118 C3.30892157,1.61689542 4.33022876,1.19133987 5.53215686,1.19133987 C6.37254902,1.19133987 7.14918301,1.41464052 7.86205882,1.87218954 C8.57490196,2.32947712 9.12434641,2.93251634 9.47908497,3.69120915 C9.58189542,3.91133987 9.75575163,4.02098039 10.0003922,4.02098039 C10.2450327,4.02098039 10.434085,3.91885621 10.5430392,3.69120915 C10.9022876,2.93977124 11.4154248,2.32947712 12.1280719,1.87218954 C12.840719,1.41464052 13.6279739,1.19133987 14.4683987,1.19133987 C15.6705556,1.19133987 16.6918627,1.61686275 17.5429412,2.45728758 C18.3940196,3.29771242 18.8195098,4.31898693 18.8195098,5.52114379 C18.8191503,5.89333333 18.7844444,6.25464052 18.7233987,6.60617647 Z" id="Shape"></path>
            </g>
        </g>
    </g>
</svg>