<svg xmlns="http://www.w3.org/2000/svg" xml:space="preserve" width="800" height="800" viewBox="0 0 200 200"><path fill="#C7D2FE" d="M149.973 35.991c15.851 6.776 30.613 19.965 39.325 37.268 8.712 17.303 11.374 38.841 1.936 52.998-9.317 14.157-30.613 21.054-47.795 31.218-17.182 10.285-30.371 23.958-43.439 23.958-13.068 0-26.136-13.794-43.197-24.079-17.182-10.285-38.236-17.182-41.503-29.282-3.267-12.221 11.374-29.645 19.602-47.311 8.349-17.666 10.285-35.574 20.086-44.286 9.801-8.712 27.346-8.349 44.77-7.986 17.303.484 34.364.726 50.215 7.502Z"/></svg>