<?xml version="1.0" encoding="UTF-8"?>
<svg width="24px" height="24px" viewBox="0 0 24 24" version="1.1" xmlns="http://www.w3.org/2000/svg" xmlns:xlink="http://www.w3.org/1999/xlink">
    <title>Twitter Icon</title>
    <g id="Symbols" stroke="none" stroke-width="1" fill="none" fill-rule="evenodd">
        <g id="Footer" transform="translate(-768.000000, -150.000000)" fill="#B2B2B2">
            <g id="Group-17" transform="translate(538.000000, 90.000000)">
                <path d="M246.48,69.9 L246.49,70.17 C246.49,72.96 244.36,76.18 240.48,76.18 C239.29,76.18 238.18,75.83 237.24,75.23 C237.41,75.25 237.58,75.26 237.75,75.26 C238.74,75.26 239.65,74.93 240.37,74.36 C239.44,74.34 238.67,73.73 238.4,72.89 C238.53,72.92 238.66,72.93 238.79,72.93 C238.99,72.93 239.17,72.9 239.35,72.86 C238.38,72.66 237.66,71.81 237.66,70.79 L237.66,70.76 C237.94,70.92 238.27,71.01 238.61,71.02 C238.05,70.64 237.67,70 237.67,69.27 C237.67,68.88 237.78,68.52 237.96,68.2 C239,69.48 240.56,70.32 242.31,70.41 C242.28,70.26 242.26,70.09 242.26,69.93 C242.26,68.76 243.2,67.82 244.37,67.82 C244.98,67.82 245.52,68.07 245.91,68.48 C246.39,68.39 246.84,68.21 247.25,67.97 C247.09,68.47 246.76,68.88 246.32,69.14 C246.75,69.09 247.16,68.98 247.53,68.81 C247.25,69.23 246.89,69.6 246.48,69.9 L246.48,69.9 Z M230,72 C230,78.63 235.37,84 242,84 C248.63,84 254,78.63 254,72 C254,65.37 248.63,60 242,60 C235.37,60 230,65.37 230,72 Z" id="Twitter-Icon"></path>
            </g>
        </g>
    </g>
</svg>